<?xml version="1.0" encoding="UTF-8"?>
<!DOCTYPE svg PUBLIC "-//W3C//DTD SVG 1.1//EN" "http://www.w3.org/Graphics/SVG/1.1/DTD/svg11.dtd">
<svg version="1.2" width="271.2mm" height="100mm" viewBox="0 0 27120 10000" preserveAspectRatio="xMidYMid" fill-rule="evenodd" stroke-width="28.222" stroke-linejoin="round" xmlns="http://www.w3.org/2000/svg" xmlns:ooo="http://xml.openoffice.org/svg/export" xmlns:xlink="http://www.w3.org/1999/xlink" xmlns:presentation="http://sun.com/xmlns/staroffice/presentation" xmlns:smil="http://www.w3.org/2001/SMIL20/" xmlns:anim="urn:oasis:names:tc:opendocument:xmlns:animation:1.0" xmlns:svg="urn:oasis:names:tc:opendocument:xmlns:svg-compatible:1.0" xml:space="preserve">
 <defs class="ClipPathGroup">
  <clipPath id="presentation_clip_path" clipPathUnits="userSpaceOnUse">
   <rect x="0" y="0" width="27120" height="10000"/>
  </clipPath>
  <clipPath id="presentation_clip_path_shrink" clipPathUnits="userSpaceOnUse">
   <rect x="27" y="10" width="27066" height="9980"/>
  </clipPath>
 </defs>
 <defs class="TextShapeIndex">
  <g ooo:slide="id1" ooo:id-list="id3"/>
 </defs>
 <defs class="EmbeddedBulletChars">
  <g id="bullet-char-template-57356" transform="scale(0.00048828125,-0.00048828125)">
   <path d="M 580,1141 L 1163,571 580,0 -4,571 580,1141 Z"/>
  </g>
  <g id="bullet-char-template-57354" transform="scale(0.00048828125,-0.00048828125)">
   <path d="M 8,1128 L 1137,1128 1137,0 8,0 8,1128 Z"/>
  </g>
  <g id="bullet-char-template-10146" transform="scale(0.00048828125,-0.00048828125)">
   <path d="M 174,0 L 602,739 174,1481 1456,739 174,0 Z M 1358,739 L 309,1346 659,739 1358,739 Z"/>
  </g>
  <g id="bullet-char-template-10132" transform="scale(0.00048828125,-0.00048828125)">
   <path d="M 2015,739 L 1276,0 717,0 1260,543 174,543 174,936 1260,936 717,1481 1274,1481 2015,739 Z"/>
  </g>
  <g id="bullet-char-template-10007" transform="scale(0.00048828125,-0.00048828125)">
   <path d="M 0,-2 C -7,14 -16,27 -25,37 L 356,567 C 262,823 215,952 215,954 215,979 228,992 255,992 264,992 276,990 289,987 310,991 331,999 354,1012 L 381,999 492,748 772,1049 836,1024 860,1049 C 881,1039 901,1025 922,1006 886,937 835,863 770,784 769,783 710,716 594,584 L 774,223 C 774,196 753,168 711,139 L 727,119 C 717,90 699,76 672,76 641,76 570,178 457,381 L 164,-76 C 142,-110 111,-127 72,-127 30,-127 9,-110 8,-76 1,-67 -2,-52 -2,-32 -2,-23 -1,-13 0,-2 Z"/>
  </g>
  <g id="bullet-char-template-10004" transform="scale(0.00048828125,-0.00048828125)">
   <path d="M 285,-33 C 182,-33 111,30 74,156 52,228 41,333 41,471 41,549 55,616 82,672 116,743 169,778 240,778 293,778 328,747 346,684 L 369,508 C 377,444 397,411 428,410 L 1163,1116 C 1174,1127 1196,1133 1229,1133 1271,1133 1292,1118 1292,1087 L 1292,965 C 1292,929 1282,901 1262,881 L 442,47 C 390,-6 338,-33 285,-33 Z"/>
  </g>
  <g id="bullet-char-template-9679" transform="scale(0.00048828125,-0.00048828125)">
   <path d="M 813,0 C 632,0 489,54 383,161 276,268 223,411 223,592 223,773 276,916 383,1023 489,1130 632,1184 813,1184 992,1184 1136,1130 1245,1023 1353,916 1407,772 1407,592 1407,412 1353,268 1245,161 1136,54 992,0 813,0 Z"/>
  </g>
  <g id="bullet-char-template-8226" transform="scale(0.00048828125,-0.00048828125)">
   <path d="M 346,457 C 273,457 209,483 155,535 101,586 74,649 74,723 74,796 101,859 155,911 209,963 273,989 346,989 419,989 480,963 531,910 582,859 608,796 608,723 608,648 583,586 532,535 482,483 420,457 346,457 Z"/>
  </g>
  <g id="bullet-char-template-8211" transform="scale(0.00048828125,-0.00048828125)">
   <path d="M -4,459 L 1135,459 1135,606 -4,606 -4,459 Z"/>
  </g>
  <g id="bullet-char-template-61548" transform="scale(0.00048828125,-0.00048828125)">
   <path d="M 173,740 C 173,903 231,1043 346,1159 462,1274 601,1332 765,1332 928,1332 1067,1274 1183,1159 1299,1043 1357,903 1357,740 1357,577 1299,437 1183,322 1067,206 928,148 765,148 601,148 462,206 346,322 231,437 173,577 173,740 Z"/>
  </g>
 </defs>
 <g>
  <g id="id2" class="Master_Slide">
   <g id="bg-id2" class="Background"/>
   <g id="bo-id2" class="BackgroundObjects"/>
  </g>
 </g>
 <g class="SlideGroup">
  <g>
   <g id="container-id1">
    <g id="id1" class="Slide" clip-path="url(#presentation_clip_path)">
     <g class="Page">
      <g class="Graphic">
       <g id="id3">
        <rect class="BoundingBox" stroke="none" fill="none" x="0" y="0" width="27120" height="20346"/>
        <defs>
         <clipPath id="clip_path_1" clipPathUnits="userSpaceOnUse">
          <path d="M 13,1948 L 26894,1948 26894,7629 13,7629 13,1948 Z"/>
         </clipPath>
        </defs>
        <g clip-path="url(#clip_path_1)">
         <path fill="rgb(207,226,243)" stroke="none" d="M 1285,1961 L 6507,1961 6507,4018 1285,4018 1285,1961 Z"/>
         <path fill="none" stroke="rgb(0,0,0)" stroke-width="26" stroke-linejoin="round" d="M 1285,1961 L 6507,1961 6507,4018 1285,4018 1285,1961 Z"/>
         <path fill="rgb(0,0,0)" stroke="none" d="M 1547,3001 C 1547,2942 1563,2896 1594,2863 1625,2830 1666,2813 1716,2813 1749,2813 1778,2821 1804,2837 1830,2852 1850,2874 1864,2902 1878,2930 1885,2961 1885,2997 1885,3032 1877,3064 1863,3093 1848,3121 1828,3142 1802,3157 1775,3172 1746,3179 1716,3179 1683,3179 1653,3171 1627,3155 1601,3139 1581,3117 1567,3089 1554,3061 1547,3032 1547,3001 L 1547,3001 Z M 1629,3102 C 1652,3126 1681,3139 1716,3139 1751,3139 1780,3126 1802,3102 1825,3077 1836,3042 1836,2996 1836,2967 1832,2942 1822,2921 1812,2899 1798,2883 1779,2871 1761,2859 1740,2853 1716,2853 1683,2853 1654,2865 1630,2888 1607,2910 1595,2948 1595,3001 1595,3044 1606,3077 1629,3102 Z M 1939,3173 L 1939,2917 1978,2917 1978,2956 C 1988,2937 1997,2925 2005,2920 2014,2914 2023,2911 2033,2911 2048,2911 2063,2916 2078,2925 L 2063,2965 C 2052,2959 2042,2956 2031,2956 2022,2956 2013,2958 2006,2964 1998,2970 1993,2978 1990,2988 1985,3003 1982,3020 1982,3039 L 1982,3173 1939,3173 Z M 2104,2869 L 2104,2819 2147,2819 2147,2869 2104,2869 Z M 2104,3173 L 2104,2917 2147,2917 2147,3173 2104,3173 Z M 2205,3194 L 2248,3200 C 2249,3213 2254,3223 2262,3228 2273,3236 2288,3240 2307,3240 2327,3240 2342,3236 2353,3228 2364,3220 2371,3209 2375,3195 2377,3186 2378,3168 2378,3139 2359,3161 2336,3173 2307,3173 2272,3173 2245,3160 2226,3135 2206,3109 2197,3079 2197,3043 2197,3019 2201,2996 2210,2975 2219,2955 2232,2939 2248,2928 2265,2917 2285,2911 2308,2911 2338,2911 2363,2923 2382,2947 L 2382,2917 2422,2917 2422,3138 C 2422,3178 2418,3206 2410,3223 2402,3239 2389,3252 2372,3262 2354,3272 2333,3276 2307,3276 2276,3276 2252,3269 2233,3256 2214,3242 2205,3222 2205,3194 Z M 2241,3040 C 2241,3074 2248,3098 2261,3114 2275,3129 2291,3137 2312,3137 2331,3137 2348,3129 2362,3114 2375,3098 2382,3074 2382,3042 2382,3010 2375,2987 2361,2971 2347,2955 2330,2947 2311,2947 2291,2947 2275,2955 2262,2970 2248,2986 2241,3009 2241,3040 Z M 2488,2869 L 2488,2819 2532,2819 2532,2869 2488,2869 Z M 2488,3173 L 2488,2917 2532,2917 2532,3173 2488,3173 Z M 2598,3173 L 2598,2917 2637,2917 2637,2953 C 2655,2925 2683,2911 2718,2911 2734,2911 2748,2914 2761,2919 2774,2925 2783,2932 2790,2941 2796,2950 2801,2961 2803,2973 2805,2981 2806,2995 2806,3015 L 2806,3173 2762,3173 2762,3017 C 2762,2999 2761,2986 2757,2978 2754,2969 2748,2962 2739,2956 2731,2951 2721,2949 2709,2949 2691,2949 2675,2954 2661,2966 2648,2978 2641,3000 2641,3033 L 2641,3173 2598,3173 Z M 3039,3141 C 3023,3155 3007,3164 2993,3170 2978,3176 2962,3178 2945,3178 2917,3178 2895,3172 2880,3158 2865,3144 2857,3126 2857,3105 2857,3093 2860,3081 2866,3071 2872,3060 2879,3052 2888,3046 2898,3040 2908,3035 2920,3032 2928,3029 2941,3027 2958,3025 2993,3021 3019,3016 3036,3010 3036,3004 3036,3000 3036,2999 3036,2981 3032,2969 3024,2961 3013,2952 2996,2947 2974,2947 2954,2947 2939,2950 2929,2958 2919,2965 2912,2977 2907,2995 L 2865,2989 C 2869,2972 2875,2957 2884,2946 2893,2935 2906,2926 2922,2920 2939,2914 2958,2911 2980,2911 3002,2911 3020,2914 3034,2919 3047,2924 3057,2930 3064,2938 3070,2946 3075,2956 3077,2968 3079,2975 3079,2988 3079,3008 L 3079,3066 C 3079,3106 3080,3131 3082,3142 3084,3153 3088,3163 3093,3173 L 3048,3173 C 3043,3164 3040,3153 3039,3141 Z M 3036,3044 C 3020,3051 2996,3056 2965,3061 2947,3063 2934,3066 2927,3069 2919,3073 2914,3077 2910,3083 2906,3089 2904,3096 2904,3104 2904,3116 2908,3125 2917,3133 2926,3141 2939,3145 2955,3145 2972,3145 2987,3141 3000,3134 3013,3126 3023,3116 3029,3104 3033,3094 3036,3079 3036,3060 L 3036,3044 Z M 3146,3173 L 3146,2819 3189,2819 3189,3173 3146,3173 Z M 3400,3173 L 3400,2819 3556,2819 C 3588,2819 3612,2822 3628,2829 3645,2835 3658,2846 3667,2863 3677,2879 3682,2896 3682,2916 3682,2941 3674,2962 3658,2979 3642,2996 3616,3007 3583,3012 3595,3018 3604,3024 3611,3030 3625,3042 3637,3058 3650,3076 L 3711,3173 3652,3173 3606,3099 C 3592,3078 3581,3062 3572,3051 3563,3039 3555,3032 3548,3027 3541,3022 3534,3019 3527,3018 3521,3016 3513,3016 3501,3016 L 3447,3016 3447,3173 3400,3173 Z M 3447,2975 L 3547,2975 C 3568,2975 3585,2973 3597,2969 3609,2964 3618,2957 3625,2947 3631,2938 3634,2927 3634,2916 3634,2899 3628,2885 3616,2875 3604,2864 3585,2858 3558,2858 L 3447,2858 3447,2975 Z M 3925,3090 L 3970,3096 C 3963,3122 3950,3142 3931,3157 3912,3171 3887,3178 3858,3178 3820,3178 3790,3167 3768,3144 3746,3121 3736,3089 3736,3047 3736,3004 3747,2970 3769,2947 3791,2923 3820,2911 3855,2911 3889,2911 3917,2923 3939,2946 3960,2969 3971,3002 3971,3044 L 3971,3056 3780,3056 C 3782,3084 3790,3105 3804,3121 3819,3135 3836,3143 3858,3143 3874,3143 3887,3139 3898,3130 3910,3122 3919,3109 3925,3090 Z M 3783,3020 L 3926,3020 C 3924,2999 3918,2982 3909,2972 3895,2955 3878,2947 3855,2947 3836,2947 3819,2953 3805,2967 3792,2980 3784,2998 3783,3020 Z M 4192,3079 L 4234,3085 C 4230,3114 4218,3137 4198,3154 4179,3170 4156,3178 4128,3178 4093,3178 4064,3167 4043,3144 4022,3121 4011,3088 4011,3046 4011,3018 4016,2994 4025,2973 4034,2952 4048,2937 4067,2927 4086,2916 4106,2911 4128,2911 4156,2911 4179,2918 4196,2932 4214,2946 4225,2966 4230,2992 L 4188,2998 C 4184,2981 4177,2968 4166,2960 4156,2951 4144,2947 4130,2947 4108,2947 4090,2954 4076,2970 4062,2986 4056,3011 4056,3044 4056,3079 4062,3104 4075,3120 4089,3135 4106,3143 4127,3143 4144,3143 4158,3138 4170,3127 4181,3117 4189,3101 4192,3079 Z M 4255,3044 C 4255,2997 4268,2962 4295,2939 4317,2920 4343,2911 4375,2911 4410,2911 4439,2923 4462,2946 4484,2969 4495,3000 4495,3041 4495,3074 4490,3100 4480,3119 4470,3138 4456,3152 4437,3163 4418,3173 4397,3178 4375,3178 4339,3178 4310,3167 4288,3144 4266,3121 4255,3088 4255,3044 Z M 4300,3044 C 4300,3077 4307,3102 4321,3118 4335,3135 4353,3143 4375,3143 4397,3143 4415,3135 4429,3118 4443,3102 4450,3077 4450,3043 4450,3012 4443,2988 4429,2971 4415,2955 4397,2947 4375,2947 4353,2947 4335,2955 4321,2971 4307,2987 4300,3012 4300,3044 Z M 4545,3173 L 4545,2917 4584,2917 4584,2956 C 4594,2937 4603,2925 4612,2920 4620,2914 4630,2911 4640,2911 4654,2911 4669,2916 4684,2925 L 4670,2965 C 4659,2959 4648,2956 4638,2956 4628,2956 4619,2958 4612,2964 4605,2970 4599,2978 4596,2988 4591,3003 4588,3020 4588,3039 L 4588,3173 4545,3173 Z M 4876,3173 L 4876,3140 C 4860,3166 4836,3178 4805,3178 4784,3178 4765,3173 4748,3161 4731,3150 4718,3134 4709,3114 4699,3094 4695,3071 4695,3045 4695,3019 4699,2996 4707,2975 4716,2954 4729,2939 4745,2927 4763,2916 4782,2911 4803,2911 4818,2911 4832,2914 4844,2921 4856,2927 4866,2936 4873,2946 L 4873,2819 4917,2819 4917,3173 4876,3173 Z M 4739,3045 C 4739,3078 4746,3102 4760,3118 4774,3135 4790,3143 4809,3143 4828,3143 4844,3135 4857,3120 4870,3104 4877,3080 4877,3049 4877,3014 4870,2988 4857,2972 4843,2955 4826,2947 4807,2947 4788,2947 4772,2955 4759,2970 4746,2986 4739,3011 4739,3045 Z M 5105,3066 L 5105,3023 5238,3023 5238,3066 5105,3066 Z M 5437,3173 L 5437,2819 5483,2819 5483,3173 5437,3173 Z M 5566,3173 L 5566,2819 5688,2819 C 5715,2819 5736,2821 5751,2825 5771,2829 5788,2837 5802,2850 5821,2865 5835,2886 5844,2910 5854,2935 5858,2963 5858,2994 5858,3021 5855,3045 5849,3066 5842,3086 5834,3103 5824,3117 5815,3130 5804,3141 5792,3149 5781,3157 5767,3163 5750,3167 5734,3171 5715,3173 5694,3173 L 5566,3173 Z M 5613,3131 L 5688,3131 C 5711,3131 5730,3129 5743,3125 5756,3120 5767,3114 5775,3106 5786,3095 5794,3080 5800,3061 5807,3043 5810,3020 5810,2993 5810,2956 5804,2928 5792,2908 5780,2888 5765,2875 5747,2868 5735,2863 5715,2861 5687,2861 L 5613,2861 5613,3131 Z"/>
         <path fill="rgb(255,255,0)" stroke="none" d="M 9122,1961 L 14344,1961 14344,4018 9122,4018 9122,1961 Z"/>
         <path fill="none" stroke="rgb(0,0,0)" stroke-width="26" stroke-linejoin="round" d="M 9122,1961 L 14344,1961 14344,4018 9122,4018 9122,1961 Z"/>
         <path fill="rgb(0,0,0)" stroke="none" d="M 9406,3173 L 9406,2819 9452,2819 9452,3173 9406,3173 9406,3173 Z M 9535,3173 L 9535,2819 9657,2819 C 9684,2819 9705,2821 9720,2825 9740,2829 9757,2837 9771,2850 9790,2865 9804,2886 9813,2910 9823,2935 9827,2963 9827,2994 9827,3021 9824,3045 9818,3066 9811,3086 9803,3103 9793,3117 9784,3130 9773,3141 9761,3149 9750,3157 9736,3163 9719,3167 9703,3171 9684,3173 9663,3173 L 9535,3173 9535,3173 Z M 9582,3131 L 9657,3131 C 9680,3131 9699,3129 9712,3125 9725,3120 9736,3114 9744,3106 9755,3095 9763,3080 9769,3061 9776,3043 9779,3020 9779,2993 9779,2956 9773,2928 9761,2908 9749,2888 9734,2875 9716,2868 9704,2863 9684,2861 9656,2861 L 9582,2861 9582,3131 9582,3131 Z M 10006,3066 L 10006,3023 10139,3023 10139,3066 10006,3066 10006,3066 Z M 10330,3173 L 10330,2819 10464,2819 C 10487,2819 10505,2820 10517,2822 10534,2826 10549,2831 10561,2839 10573,2847 10582,2859 10589,2873 10596,2888 10600,2904 10600,2922 10600,2952 10590,2977 10571,2998 10552,3019 10517,3029 10467,3029 L 10377,3029 10377,3173 10330,3173 10330,3173 Z M 10377,2987 L 10468,2987 C 10498,2987 10520,2982 10533,2970 10545,2959 10552,2943 10552,2923 10552,2908 10548,2895 10540,2885 10533,2874 10523,2868 10511,2864 10503,2862 10489,2861 10467,2861 L 10377,2861 10377,2987 10377,2987 Z M 10637,3096 L 10680,3090 C 10682,3107 10688,3120 10699,3129 10710,3138 10726,3143 10746,3143 10766,3143 10780,3139 10790,3131 10800,3123 10804,3113 10804,3102 10804,3092 10800,3085 10792,3079 10786,3075 10771,3070 10747,3064 10715,3056 10693,3049 10681,3043 10669,3037 10659,3029 10653,3019 10647,3009 10644,2997 10644,2985 10644,2973 10646,2963 10651,2953 10657,2943 10664,2935 10673,2929 10680,2924 10689,2920 10700,2916 10712,2913 10725,2911 10738,2911 10758,2911 10776,2914 10791,2920 10806,2925 10817,2933 10824,2943 10832,2953 10837,2966 10840,2983 L 10797,2989 C 10795,2975 10789,2965 10780,2958 10771,2950 10758,2947 10741,2947 10721,2947 10707,2950 10698,2956 10690,2963 10686,2971 10686,2980 10686,2985 10687,2990 10691,2995 10694,3000 10700,3003 10708,3006 10712,3008 10724,3012 10746,3018 10777,3026 10798,3032 10810,3037 10822,3043 10832,3050 10839,3060 10846,3070 10849,3083 10849,3097 10849,3112 10845,3126 10836,3138 10828,3151 10816,3161 10800,3168 10784,3175 10766,3178 10746,3178 10713,3178 10687,3172 10670,3158 10652,3144 10641,3123 10637,3096 L 10637,3096 Z M 11076,3090 L 11121,3096 C 11113,3122 11100,3142 11081,3157 11062,3171 11038,3178 11008,3178 10971,3178 10941,3167 10919,3144 10897,3121 10886,3089 10886,3047 10886,3004 10897,2970 10919,2947 10942,2923 10970,2911 11006,2911 11040,2911 11068,2923 11089,2946 11111,2969 11122,3002 11122,3044 11122,3047 11122,3051 11122,3056 L 10931,3056 C 10933,3084 10941,3105 10955,3121 10969,3135 10987,3143 11008,3143 11024,3143 11038,3139 11049,3130 11060,3122 11069,3109 11076,3090 L 11076,3090 Z M 10933,3020 L 11076,3020 C 11074,2999 11069,2982 11060,2972 11046,2955 11028,2947 11006,2947 10986,2947 10969,2953 10956,2967 10942,2980 10935,2998 10933,3020 L 10933,3020 Z M 11343,3173 L 11343,3135 C 11323,3164 11296,3178 11262,3178 11246,3178 11232,3176 11219,3170 11206,3164 11196,3157 11190,3148 11184,3139 11179,3128 11177,3116 11175,3107 11174,3094 11174,3075 L 11174,2917 11217,2917 11217,3059 C 11217,3081 11218,3096 11220,3104 11223,3116 11229,3125 11238,3131 11246,3138 11257,3141 11270,3141 11283,3141 11295,3138 11307,3131 11318,3124 11326,3115 11331,3104 11336,3092 11338,3076 11338,3054 L 11338,2917 11381,2917 11381,3173 11343,3173 11343,3173 Z M 11615,3173 L 11615,3140 C 11600,3166 11576,3178 11544,3178 11524,3178 11505,3173 11488,3161 11471,3150 11457,3134 11448,3114 11439,3094 11434,3071 11434,3045 11434,3019 11438,2996 11447,2975 11455,2954 11468,2939 11485,2927 11502,2916 11521,2911 11542,2911 11558,2911 11571,2914 11583,2921 11595,2927 11605,2936 11613,2946 L 11613,2819 11656,2819 11656,3173 11615,3173 11615,3173 Z M 11479,3045 C 11479,3078 11486,3102 11499,3118 11513,3135 11529,3143 11548,3143 11567,3143 11583,3135 11596,3120 11610,3104 11616,3080 11616,3049 11616,3014 11610,2988 11596,2972 11583,2955 11566,2947 11546,2947 11527,2947 11511,2955 11498,2970 11485,2986 11479,3011 11479,3045 L 11479,3045 Z M 11708,3044 C 11708,2997 11721,2962 11747,2939 11769,2920 11796,2911 11828,2911 11863,2911 11892,2923 11914,2946 11937,2969 11948,3000 11948,3041 11948,3074 11943,3100 11933,3119 11923,3138 11909,3152 11890,3163 11871,3173 11850,3178 11828,3178 11792,3178 11763,3167 11741,3144 11719,3121 11708,3088 11708,3044 L 11708,3044 Z M 11753,3044 C 11753,3077 11760,3102 11774,3118 11788,3135 11806,3143 11828,3143 11850,3143 11867,3135 11882,3118 11896,3102 11903,3077 11903,3043 11903,3012 11896,2988 11882,2971 11867,2955 11850,2947 11828,2947 11806,2947 11788,2955 11774,2971 11760,2987 11753,3012 11753,3044 L 11753,3044 Z M 11999,3173 L 11999,2917 12038,2917 12038,2953 C 12056,2925 12084,2911 12119,2911 12134,2911 12149,2914 12162,2919 12175,2925 12184,2932 12191,2941 12197,2950 12202,2961 12204,2973 12206,2981 12207,2995 12207,3015 L 12207,3173 12163,3173 12163,3017 C 12163,2999 12161,2986 12158,2978 12155,2969 12149,2962 12140,2956 12132,2951 12122,2949 12110,2949 12091,2949 12076,2954 12062,2966 12049,2978 12042,3000 12042,3033 L 12042,3173 11999,3173 11999,3173 Z M 12271,3271 L 12266,3230 C 12276,3233 12284,3234 12291,3234 12301,3234 12308,3233 12314,3229 12320,3226 12325,3222 12329,3216 12331,3212 12336,3201 12342,3184 12343,3181 12344,3178 12346,3173 L 12248,2917 12295,2917 12349,3065 C 12355,3084 12362,3104 12367,3124 12372,3104 12378,3085 12385,3066 L 12440,2917 12483,2917 12386,3177 C 12375,3205 12367,3225 12361,3235 12354,3249 12345,3260 12335,3266 12325,3273 12313,3276 12299,3276 12291,3276 12281,3275 12271,3271 L 12271,3271 Z M 12520,3173 L 12520,2917 12559,2917 12559,2953 C 12567,2940 12578,2930 12591,2923 12604,2915 12619,2911 12636,2911 12655,2911 12671,2915 12683,2923 12695,2931 12704,2942 12709,2956 12729,2926 12755,2911 12788,2911 12813,2911 12833,2918 12846,2932 12860,2946 12867,2968 12867,2997 L 12867,3173 12824,3173 12824,3011 C 12824,2994 12822,2982 12819,2974 12817,2966 12812,2960 12804,2956 12797,2951 12788,2949 12778,2949 12760,2949 12745,2955 12733,2967 12722,2979 12716,2998 12716,3024 L 12716,3173 12672,3173 12672,3006 C 12672,2987 12669,2973 12661,2963 12654,2953 12643,2949 12627,2949 12615,2949 12603,2952 12593,2958 12582,2964 12575,2974 12570,2986 12566,2999 12563,3017 12563,3040 L 12563,3173 12520,3173 12520,3173 Z"/>
         <path fill="rgb(0,255,0)" stroke="none" d="M 16958,1961 L 25149,1961 25149,4018 16958,4018 16958,1961 Z"/>
         <path fill="none" stroke="rgb(0,0,0)" stroke-width="26" stroke-linejoin="round" d="M 16958,1961 L 25149,1961 25149,4018 16958,4018 16958,1961 Z"/>
         <path fill="rgb(0,0,0)" stroke="none" d="M 17235,3173 L 17235,2819 17491,2819 17491,2861 17283,2861 17283,2969 17478,2969 17478,3011 17283,3011 17283,3131 17499,3131 17499,3173 17235,3173 Z M 17529,3173 L 17623,3040 17537,2917 17591,2917 17630,2977 C 17637,2988 17643,2997 17648,3005 17655,2995 17661,2985 17667,2977 L 17711,2917 17762,2917 17674,3037 17769,3173 17716,3173 17663,3093 17649,3072 17582,3173 17529,3173 Z M 17805,3271 L 17805,2917 17845,2917 17845,2950 C 17854,2937 17864,2927 17876,2921 17888,2914 17902,2911 17919,2911 17941,2911 17960,2917 17976,2928 17993,2939 18006,2955 18014,2975 18023,2996 18027,3018 18027,3043 18027,3069 18023,3093 18013,3114 18004,3134 17990,3151 17972,3162 17954,3173 17935,3178 17916,3178 17901,3178 17888,3175 17877,3169 17865,3163 17856,3156 17849,3146 L 17849,3271 17805,3271 Z M 17845,3046 C 17845,3079 17851,3103 17864,3119 17878,3135 17894,3143 17913,3143 17932,3143 17949,3135 17962,3118 17976,3102 17983,3077 17983,3042 17983,3010 17976,2985 17963,2969 17950,2953 17934,2945 17915,2945 17896,2945 17880,2954 17866,2971 17852,2988 17845,3013 17845,3046 Z M 18064,3044 C 18064,2997 18077,2962 18103,2939 18125,2920 18152,2911 18184,2911 18219,2911 18248,2923 18270,2946 18292,2969 18303,3000 18303,3041 18303,3074 18298,3100 18289,3119 18279,3138 18264,3152 18245,3163 18226,3173 18206,3178 18184,3178 18148,3178 18119,3167 18097,3144 18075,3121 18064,3088 18064,3044 Z M 18108,3044 C 18108,3077 18115,3102 18129,3118 18144,3135 18162,3143 18184,3143 18205,3143 18223,3135 18237,3118 18252,3102 18259,3077 18259,3043 18259,3012 18252,2988 18237,2971 18223,2955 18205,2947 18184,2947 18162,2947 18144,2955 18129,2971 18115,2987 18108,3012 18108,3044 Z M 18354,3173 L 18354,2917 18393,2917 18393,2956 C 18403,2937 18412,2925 18420,2920 18429,2914 18438,2911 18448,2911 18463,2911 18478,2916 18493,2925 L 18478,2965 C 18467,2959 18457,2956 18446,2956 18436,2956 18428,2958 18420,2964 18413,2970 18408,2978 18404,2988 18399,3003 18397,3020 18397,3039 L 18397,3173 18354,3173 Z M 18613,3134 L 18620,3172 C 18607,3175 18596,3176 18587,3176 18571,3176 18559,3173 18550,3168 18542,3164 18535,3157 18532,3149 18528,3141 18526,3124 18526,3098 L 18526,2950 18495,2950 18495,2917 18526,2917 18526,2853 18569,2827 18569,2917 18613,2917 18613,2950 18569,2950 18569,3100 C 18569,3112 18570,3120 18572,3124 18573,3127 18576,3130 18579,3133 18583,3134 18588,3135 18594,3135 18599,3135 18605,3135 18613,3134 Z M 18831,3090 L 18876,3096 C 18869,3122 18855,3142 18836,3157 18817,3171 18793,3178 18763,3178 18726,3178 18696,3167 18674,3144 18652,3121 18641,3089 18641,3047 18641,3004 18652,2970 18674,2947 18697,2923 18725,2911 18761,2911 18795,2911 18823,2923 18844,2946 18866,2969 18877,3002 18877,3044 L 18877,3056 18686,3056 C 18688,3084 18696,3105 18710,3121 18724,3135 18742,3143 18763,3143 18779,3143 18793,3139 18804,3130 18815,3122 18824,3109 18831,3090 Z M 18688,3020 L 18831,3020 C 18830,2999 18824,2982 18815,2972 18801,2955 18783,2947 18761,2947 18741,2947 18725,2953 18711,2967 18697,2980 18690,2998 18688,3020 Z M 19096,3173 L 19096,3140 C 19080,3166 19056,3178 19025,3178 19004,3178 18985,3173 18968,3161 18951,3150 18938,3134 18929,3114 18919,3094 18915,3071 18915,3045 18915,3019 18919,2996 18927,2975 18936,2954 18949,2939 18965,2927 18983,2916 19002,2911 19023,2911 19038,2911 19052,2914 19064,2921 19076,2927 19086,2936 19093,2946 L 19093,2819 19137,2819 19137,3173 19096,3173 Z M 18959,3045 C 18959,3078 18966,3102 18980,3118 18994,3135 19010,3143 19029,3143 19048,3143 19064,3135 19077,3120 19090,3104 19097,3080 19097,3049 19097,3014 19090,2988 19077,2972 19063,2955 19046,2947 19027,2947 19008,2947 18992,2955 18979,2970 18966,2986 18959,3011 18959,3045 Z M 19348,3173 L 19348,2819 19505,2819 C 19536,2819 19560,2822 19576,2829 19593,2835 19606,2846 19616,2863 19626,2879 19630,2896 19630,2916 19630,2941 19622,2962 19606,2979 19590,2996 19565,3007 19531,3012 19543,3018 19553,3024 19559,3030 19573,3042 19586,3058 19598,3076 L 19659,3173 19601,3173 19554,3099 C 19540,3078 19529,3062 19520,3051 19511,3039 19503,3032 19496,3027 19489,3022 19482,3019 19475,3018 19470,3016 19461,3016 19449,3016 L 19395,3016 19395,3173 19348,3173 Z M 19395,2975 L 19495,2975 C 19517,2975 19533,2973 19545,2969 19557,2964 19567,2957 19573,2947 19579,2938 19583,2927 19583,2916 19583,2899 19576,2885 19564,2875 19552,2864 19533,2858 19506,2858 L 19395,2858 19395,2975 Z M 19874,3090 L 19918,3096 C 19911,3122 19898,3142 19879,3157 19860,3171 19836,3178 19806,3178 19768,3178 19739,3167 19717,3144 19695,3121 19684,3089 19684,3047 19684,3004 19695,2970 19717,2947 19739,2923 19768,2911 19803,2911 19838,2911 19865,2923 19887,2946 19909,2969 19920,3002 19920,3044 L 19920,3056 19729,3056 C 19730,3084 19738,3105 19753,3121 19767,3135 19785,3143 19806,3143 19822,3143 19836,3139 19847,3130 19858,3122 19867,3109 19874,3090 Z M 19731,3020 L 19874,3020 C 19872,2999 19867,2982 19858,2972 19844,2955 19826,2947 19804,2947 19784,2947 19767,2953 19753,2967 19740,2980 19732,2998 19731,3020 Z M 20140,3079 L 20183,3085 C 20178,3114 20166,3137 20147,3154 20128,3170 20104,3178 20076,3178 20041,3178 20013,3167 19992,3144 19970,3121 19960,3088 19960,3046 19960,3018 19964,2994 19973,2973 19982,2952 19996,2937 20015,2927 20034,2916 20054,2911 20076,2911 20104,2911 20127,2918 20144,2932 20162,2946 20173,2966 20178,2992 L 20136,2998 C 20132,2981 20125,2968 20115,2960 20105,2951 20092,2947 20078,2947 20056,2947 20038,2954 20025,2970 20011,2986 20004,3011 20004,3044 20004,3079 20011,3104 20024,3120 20037,3135 20054,3143 20075,3143 20093,3143 20107,3138 20118,3127 20130,3117 20137,3101 20140,3079 Z M 20204,3044 C 20204,2997 20217,2962 20243,2939 20265,2920 20292,2911 20323,2911 20359,2911 20388,2923 20410,2946 20432,2969 20443,3000 20443,3041 20443,3074 20438,3100 20428,3119 20419,3138 20404,3152 20385,3163 20366,3173 20346,3178 20323,3178 20288,3178 20259,3167 20237,3144 20215,3121 20204,3088 20204,3044 Z M 20248,3044 C 20248,3077 20255,3102 20269,3118 20284,3135 20302,3143 20323,3143 20345,3143 20363,3135 20377,3118 20392,3102 20399,3077 20399,3043 20399,3012 20392,2988 20377,2971 20363,2955 20345,2947 20323,2947 20302,2947 20284,2955 20269,2971 20255,2987 20248,3012 20248,3044 Z M 20494,3173 L 20494,2917 20533,2917 20533,2956 C 20543,2937 20552,2925 20560,2920 20569,2914 20578,2911 20588,2911 20603,2911 20618,2916 20633,2925 L 20618,2965 C 20607,2959 20596,2956 20586,2956 20576,2956 20568,2958 20560,2964 20553,2970 20548,2978 20544,2988 20539,3003 20537,3020 20537,3039 L 20537,3173 20494,3173 Z M 20824,3173 L 20824,3140 C 20808,3166 20785,3178 20753,3178 20732,3178 20714,3173 20697,3161 20680,3150 20666,3134 20657,3114 20648,3094 20643,3071 20643,3045 20643,3019 20647,2996 20656,2975 20664,2954 20677,2939 20694,2927 20711,2916 20730,2911 20751,2911 20767,2911 20780,2914 20792,2921 20804,2927 20814,2936 20821,2946 L 20821,2819 20865,2819 20865,3173 20824,3173 Z M 20688,3045 C 20688,3078 20694,3102 20708,3118 20722,3135 20738,3143 20757,3143 20776,3143 20792,3135 20805,3120 20819,3104 20825,3080 20825,3049 20825,3014 20818,2988 20805,2972 20791,2955 20775,2947 20755,2947 20736,2947 20720,2955 20707,2970 20694,2986 20688,3011 20688,3045 Z M 21053,3066 L 21053,3023 21186,3023 21186,3066 21053,3066 Z M 21377,3173 L 21377,2819 21511,2819 C 21534,2819 21552,2820 21564,2822 21582,2826 21596,2831 21608,2839 21620,2847 21629,2859 21636,2873 21644,2888 21647,2904 21647,2922 21647,2952 21637,2977 21618,2998 21599,3019 21565,3029 21514,3029 L 21424,3029 21424,3173 21377,3173 Z M 21424,2987 L 21515,2987 C 21546,2987 21567,2982 21580,2970 21592,2959 21599,2943 21599,2923 21599,2908 21595,2895 21588,2885 21580,2874 21570,2868 21558,2864 21550,2862 21536,2861 21514,2861 L 21424,2861 21424,2987 Z M 21684,3096 L 21727,3090 C 21729,3107 21735,3120 21746,3129 21757,3138 21773,3143 21793,3143 21813,3143 21827,3139 21837,3131 21847,3123 21851,3113 21851,3102 21851,3092 21847,3085 21839,3079 21833,3075 21818,3070 21794,3064 21762,3056 21740,3049 21728,3043 21716,3037 21707,3029 21700,3019 21694,3009 21691,2997 21691,2985 21691,2973 21693,2963 21699,2953 21704,2943 21711,2935 21720,2929 21727,2924 21736,2920 21747,2916 21759,2913 21772,2911 21785,2911 21805,2911 21823,2914 21838,2920 21853,2925 21864,2933 21871,2943 21879,2953 21884,2966 21887,2983 L 21844,2989 C 21842,2975 21836,2965 21827,2958 21818,2950 21805,2947 21788,2947 21768,2947 21754,2950 21745,2956 21737,2963 21733,2971 21733,2980 21733,2985 21734,2990 21738,2995 21741,3000 21747,3003 21755,3006 21759,3008 21772,3012 21793,3018 21824,3026 21845,3032 21857,3037 21869,3043 21879,3050 21886,3060 21893,3070 21896,3083 21896,3097 21896,3112 21892,3126 21883,3138 21875,3151 21863,3161 21847,3168 21831,3175 21813,3178 21793,3178 21760,3178 21734,3172 21717,3158 21699,3144 21688,3123 21684,3096 Z M 22123,3090 L 22168,3096 C 22161,3122 22147,3142 22128,3157 22109,3171 22085,3178 22055,3178 22018,3178 21988,3167 21966,3144 21944,3121 21933,3089 21933,3047 21933,3004 21944,2970 21966,2947 21989,2923 22018,2911 22053,2911 22087,2911 22115,2923 22136,2946 22158,2969 22169,3002 22169,3044 L 22169,3056 21978,3056 C 21980,3084 21988,3105 22002,3121 22016,3135 22034,3143 22055,3143 22071,3143 22085,3139 22096,3130 22108,3122 22116,3109 22123,3090 Z M 21980,3020 L 22123,3020 C 22122,2999 22116,2982 22107,2972 22093,2955 22075,2947 22053,2947 22033,2947 22017,2953 22003,2967 21989,2980 21982,2998 21980,3020 Z M 22390,3173 L 22390,3135 C 22370,3164 22343,3178 22309,3178 22294,3178 22279,3176 22266,3170 22253,3164 22244,3157 22237,3148 22231,3139 22226,3128 22224,3116 22222,3107 22221,3094 22221,3075 L 22221,2917 22264,2917 22264,3059 C 22264,3081 22265,3096 22267,3104 22270,3116 22276,3125 22285,3131 22294,3138 22304,3141 22317,3141 22330,3141 22342,3138 22354,3131 22365,3124 22373,3115 22378,3104 22383,3092 22385,3076 22385,3054 L 22385,2917 22429,2917 22429,3173 22390,3173 Z M 22663,3173 L 22663,3140 C 22647,3166 22623,3178 22591,3178 22571,3178 22552,3173 22535,3161 22518,3150 22505,3134 22495,3114 22486,3094 22481,3071 22481,3045 22481,3019 22485,2996 22494,2975 22502,2954 22515,2939 22532,2927 22549,2916 22568,2911 22589,2911 22605,2911 22619,2914 22630,2921 22642,2927 22652,2936 22660,2946 L 22660,2819 22703,2819 22703,3173 22663,3173 Z M 22526,3045 C 22526,3078 22533,3102 22546,3118 22560,3135 22576,3143 22595,3143 22614,3143 22630,3135 22644,3120 22657,3104 22663,3080 22663,3049 22663,3014 22657,2988 22643,2972 22630,2955 22613,2947 22593,2947 22574,2947 22558,2955 22545,2970 22532,2986 22526,3011 22526,3045 Z M 22755,3044 C 22755,2997 22768,2962 22794,2939 22817,2920 22843,2911 22875,2911 22910,2911 22939,2923 22962,2946 22984,2969 22995,3000 22995,3041 22995,3074 22990,3100 22980,3119 22970,3138 22956,3152 22937,3163 22918,3173 22897,3178 22875,3178 22839,3178 22810,3167 22788,3144 22766,3121 22755,3088 22755,3044 Z M 22800,3044 C 22800,3077 22807,3102 22821,3118 22835,3135 22853,3143 22875,3143 22897,3143 22915,3135 22929,3118 22943,3102 22950,3077 22950,3043 22950,3012 22943,2988 22929,2971 22915,2955 22897,2947 22875,2947 22853,2947 22835,2955 22821,2971 22807,2987 22800,3012 22800,3044 Z M 23046,3173 L 23046,2917 23085,2917 23085,2953 C 23103,2925 23131,2911 23166,2911 23182,2911 23196,2914 23209,2919 23222,2925 23231,2932 23238,2941 23244,2950 23249,2961 23251,2973 23253,2981 23254,2995 23254,3015 L 23254,3173 23210,3173 23210,3017 C 23210,2999 23209,2986 23205,2978 23202,2969 23196,2962 23187,2956 23179,2951 23169,2949 23157,2949 23139,2949 23123,2954 23109,2966 23096,2978 23089,3000 23089,3033 L 23089,3173 23046,3173 Z M 23318,3271 L 23313,3230 C 23323,3233 23331,3234 23338,3234 23348,3234 23356,3233 23361,3229 23367,3226 23372,3222 23376,3216 23379,3212 23383,3201 23389,3184 23390,3181 23391,3178 23393,3173 L 23296,2917 23342,2917 23396,3065 C 23403,3084 23409,3104 23414,3124 23419,3104 23425,3085 23432,3066 L 23487,2917 23530,2917 23433,3177 C 23422,3205 23414,3225 23408,3235 23401,3249 23392,3260 23382,3266 23372,3273 23360,3276 23346,3276 23338,3276 23329,3275 23318,3271 Z M 23567,2917 L 23606,2917 23606,2953 C 23614,2940 23625,2930 23638,2923 23651,2915 23667,2911 23683,2911 23702,2911 23718,2915 23730,2923 23742,2931 23751,2942 23756,2956 23776,2926 23802,2911 23835,2911 23860,2911 23880,2918 23893,2932 23907,2946 23914,2968 23914,2997 L 23914,3173 23871,3173 23871,3011 C 23871,2994 23869,2982 23866,2974 23864,2966 23859,2960 23851,2956 23844,2951 23835,2949 23825,2949 23807,2949 23792,2955 23780,2967 23769,2979 23763,2998 23763,3024 L 23763,3173 23719,3173 23719,3006 C 23719,2987 23716,2973 23709,2963 23701,2953 23690,2949 23674,2949 23662,2949 23650,2952 23640,2958 23629,2964 23622,2974 23617,2986 23613,2999 23611,3017 23611,3040 L 23611,3173 23567,3173 23567,2917 Z"/>
         <path fill="none" stroke="rgb(0,0,0)" stroke-width="26" stroke-linejoin="round" d="M 6507,2990 L 8963,2990"/>
         <path fill="rgb(0,0,0)" stroke="none" d="M 8963,3033 L 9083,2990 8963,2946 8963,3033 Z"/>
         <path fill="none" stroke="rgb(0,0,0)" stroke-width="26" stroke-linejoin="miter" d="M 8963,3033 L 9083,2990 8963,2946 8963,3033 Z"/>
         <path fill="none" stroke="rgb(0,0,0)" stroke-width="26" stroke-linejoin="round" d="M 14344,2990 L 16799,2990"/>
         <path fill="rgb(0,0,0)" stroke="none" d="M 16799,3033 L 16919,2990 16799,2946 16799,3033 Z"/>
         <path fill="none" stroke="rgb(0,0,0)" stroke-width="26" stroke-linejoin="miter" d="M 16799,3033 L 16919,2990 16799,2946 16799,3033 Z"/>
         <path fill="rgb(207,226,243)" stroke="none" d="M 13,5559 L 8346,5559 8346,7616 13,7616 13,5559 Z"/>
         <path fill="none" stroke="rgb(0,0,0)" stroke-width="26" stroke-linejoin="round" d="M 13,5559 L 8346,5559 8346,7616 13,7616 13,5559 Z"/>
         <path fill="rgb(0,0,0)" stroke="none" d="M 275,6599 C 275,6540 291,6494 322,6461 354,6428 395,6411 444,6411 477,6411 506,6419 532,6435 559,6450 579,6472 592,6500 606,6528 613,6559 613,6595 613,6630 606,6663 591,6691 577,6719 556,6740 530,6755 504,6770 475,6777 444,6777 411,6777 381,6769 355,6753 329,6737 309,6715 296,6687 282,6659 275,6630 275,6599 Z M 323,6599 C 323,6642 335,6675 358,6700 380,6725 409,6737 444,6737 479,6737 508,6724 531,6700 553,6675 565,6640 565,6594 565,6566 560,6540 550,6519 541,6497 526,6481 508,6469 489,6457 468,6452 445,6452 411,6452 383,6463 359,6486 335,6508 323,6546 323,6599 Z M 668,6771 L 668,6515 706,6515 706,6554 C 716,6535 725,6523 734,6518 742,6512 752,6509 762,6509 776,6509 791,6514 806,6523 L 792,6563 C 781,6557 770,6554 760,6554 750,6554 742,6557 734,6562 727,6568 721,6576 718,6586 713,6601 711,6618 711,6637 L 711,6771 668,6771 Z M 832,6467 L 832,6417 876,6417 876,6467 832,6467 Z M 832,6771 L 832,6515 876,6515 876,6771 832,6771 Z M 934,6792 L 976,6798 C 978,6811 983,6821 991,6827 1002,6834 1016,6838 1035,6838 1055,6838 1071,6834 1081,6827 1092,6819 1100,6807 1104,6793 1106,6784 1107,6766 1107,6737 1088,6760 1064,6771 1036,6771 1001,6771 973,6758 954,6733 935,6707 925,6677 925,6641 925,6617 929,6594 938,6574 947,6553 960,6537 977,6526 994,6515 1013,6509 1036,6509 1066,6509 1091,6521 1111,6545 L 1111,6515 1151,6515 1151,6736 C 1151,6776 1147,6804 1138,6821 1130,6837 1118,6850 1100,6860 1083,6870 1061,6874 1035,6874 1005,6874 980,6868 961,6854 942,6840 933,6820 934,6792 Z M 970,6638 C 970,6672 976,6696 990,6712 1003,6727 1020,6735 1040,6735 1060,6735 1076,6727 1090,6712 1103,6697 1110,6672 1110,6640 1110,6608 1103,6585 1089,6569 1075,6553 1059,6545 1039,6545 1020,6545 1003,6553 990,6569 976,6584 970,6607 970,6638 Z M 1216,6467 L 1216,6417 1260,6417 1260,6467 1216,6467 Z M 1216,6771 L 1216,6515 1260,6515 1260,6771 1216,6771 Z M 1326,6771 L 1326,6515 1365,6515 1365,6551 C 1384,6523 1411,6509 1446,6509 1462,6509 1476,6512 1489,6517 1502,6523 1512,6530 1518,6539 1525,6548 1529,6559 1532,6571 1533,6579 1534,6593 1534,6613 L 1534,6771 1491,6771 1491,6615 C 1491,6597 1489,6584 1485,6576 1482,6567 1476,6560 1468,6554 1459,6549 1449,6547 1437,6547 1419,6547 1403,6553 1389,6564 1376,6576 1370,6598 1370,6631 L 1370,6771 1326,6771 Z M 1768,6739 C 1751,6753 1736,6762 1721,6768 1706,6774 1691,6776 1673,6776 1645,6776 1624,6770 1609,6756 1593,6742 1586,6725 1586,6703 1586,6691 1589,6679 1594,6669 1600,6659 1608,6650 1617,6644 1626,6638 1637,6633 1648,6630 1656,6628 1669,6625 1687,6623 1722,6619 1747,6614 1764,6608 1764,6602 1764,6598 1764,6597 1764,6579 1760,6567 1752,6559 1741,6550 1724,6545 1702,6545 1682,6545 1667,6549 1657,6556 1648,6563 1640,6575 1636,6593 L 1593,6588 C 1597,6570 1603,6555 1612,6544 1621,6533 1634,6524 1651,6518 1668,6512 1687,6509 1709,6509 1731,6509 1748,6512 1762,6517 1776,6522 1786,6528 1792,6536 1799,6544 1803,6554 1806,6566 1807,6573 1808,6586 1808,6606 L 1808,6664 C 1808,6704 1809,6729 1811,6740 1813,6751 1816,6761 1821,6771 L 1776,6771 C 1772,6762 1769,6751 1768,6739 Z M 1764,6642 C 1748,6649 1725,6654 1693,6659 1675,6661 1663,6664 1655,6667 1648,6671 1642,6675 1638,6681 1634,6687 1632,6694 1632,6702 1632,6714 1636,6723 1645,6731 1654,6739 1667,6743 1684,6743 1700,6743 1715,6739 1728,6732 1741,6724 1751,6714 1757,6702 1762,6692 1764,6677 1764,6658 L 1764,6642 Z M 1874,6771 L 1874,6417 1917,6417 1917,6771 1874,6771 Z M 2128,6771 L 2128,6417 2285,6417 C 2316,6417 2340,6420 2356,6427 2373,6433 2386,6444 2396,6461 2406,6477 2411,6494 2411,6514 2411,6539 2402,6560 2386,6577 2370,6594 2345,6605 2311,6610 2323,6616 2333,6622 2339,6628 2353,6640 2366,6656 2378,6674 L 2439,6771 2381,6771 2334,6697 C 2320,6676 2309,6660 2300,6649 2291,6637 2283,6630 2276,6625 2269,6621 2262,6617 2255,6616 2250,6614 2241,6614 2229,6614 L 2175,6614 2175,6771 2128,6771 Z M 2175,6574 L 2275,6574 C 2297,6574 2314,6571 2325,6567 2338,6562 2347,6555 2353,6545 2359,6536 2363,6525 2363,6514 2363,6497 2357,6483 2344,6473 2332,6462 2313,6457 2287,6457 L 2175,6457 2175,6574 Z M 2654,6688 L 2698,6694 C 2691,6720 2678,6740 2659,6755 2640,6769 2616,6776 2586,6776 2548,6776 2519,6765 2497,6742 2475,6719 2464,6687 2464,6645 2464,6602 2475,6568 2497,6545 2519,6521 2548,6509 2583,6509 2618,6509 2645,6521 2667,6544 2689,6567 2700,6600 2700,6642 L 2700,6654 2509,6654 C 2510,6682 2518,6703 2533,6719 2547,6733 2565,6741 2586,6741 2602,6741 2616,6737 2627,6729 2638,6720 2647,6707 2654,6688 Z M 2511,6618 L 2654,6618 C 2652,6597 2647,6581 2638,6570 2624,6553 2606,6545 2584,6545 2564,6545 2547,6551 2533,6565 2520,6578 2512,6596 2511,6618 Z M 2920,6677 L 2963,6683 C 2958,6712 2946,6735 2927,6752 2908,6768 2884,6776 2856,6776 2821,6776 2793,6765 2772,6742 2750,6719 2740,6687 2740,6644 2740,6616 2744,6592 2753,6571 2762,6550 2776,6535 2795,6525 2814,6514 2834,6509 2856,6509 2884,6509 2907,6516 2925,6530 2942,6544 2953,6564 2958,6590 L 2916,6596 C 2912,6579 2905,6566 2895,6558 2885,6549 2872,6545 2858,6545 2836,6545 2818,6552 2805,6568 2791,6584 2784,6609 2784,6643 2784,6677 2791,6702 2804,6718 2817,6733 2834,6741 2855,6741 2873,6741 2887,6736 2898,6725 2910,6715 2917,6699 2920,6677 Z M 2984,6643 C 2984,6595 2997,6560 3023,6538 3045,6519 3072,6509 3104,6509 3139,6509 3168,6521 3190,6544 3212,6567 3223,6598 3223,6639 3223,6672 3218,6698 3209,6717 3199,6736 3184,6750 3165,6761 3146,6771 3126,6776 3104,6776 3068,6776 3039,6765 3017,6742 2995,6719 2984,6686 2984,6643 Z M 3028,6643 C 3028,6675 3035,6700 3049,6717 3064,6733 3082,6741 3104,6741 3125,6741 3143,6733 3157,6717 3172,6700 3179,6675 3179,6641 3179,6610 3172,6586 3157,6569 3143,6553 3125,6545 3104,6545 3082,6545 3064,6553 3049,6569 3035,6585 3028,6610 3028,6643 Z M 3274,6771 L 3274,6515 3313,6515 3313,6554 C 3323,6535 3332,6523 3340,6518 3349,6512 3358,6509 3368,6509 3383,6509 3398,6514 3413,6523 L 3398,6563 C 3387,6557 3377,6554 3366,6554 3356,6554 3348,6557 3340,6562 3333,6568 3328,6576 3324,6586 3319,6601 3317,6618 3317,6637 L 3317,6771 3274,6771 Z M 3604,6771 L 3604,6738 C 3588,6764 3565,6776 3533,6776 3513,6776 3494,6771 3477,6760 3460,6748 3446,6733 3437,6712 3428,6692 3423,6669 3423,6643 3423,6617 3427,6594 3436,6574 3444,6553 3457,6537 3474,6526 3491,6515 3510,6509 3531,6509 3547,6509 3560,6512 3572,6519 3584,6525 3594,6534 3602,6544 L 3602,6417 3645,6417 3645,6771 3604,6771 Z M 3468,6643 C 3468,6676 3474,6700 3488,6717 3502,6733 3518,6741 3537,6741 3556,6741 3572,6733 3585,6718 3599,6702 3605,6678 3605,6647 3605,6612 3598,6586 3585,6570 3571,6553 3555,6545 3535,6545 3516,6545 3500,6553 3487,6569 3474,6584 3468,6609 3468,6643 Z M 3833,6664 L 3833,6621 3966,6621 3966,6664 3833,6664 Z M 4165,6771 L 4165,6417 4212,6417 4212,6771 4165,6771 Z M 4294,6771 L 4294,6417 4416,6417 C 4444,6417 4465,6419 4479,6423 4499,6427 4516,6435 4531,6448 4550,6464 4563,6484 4573,6508 4582,6533 4587,6561 4587,6592 4587,6619 4583,6643 4577,6664 4571,6684 4563,6701 4553,6715 4543,6728 4532,6739 4521,6747 4509,6755 4495,6761 4479,6765 4462,6769 4443,6771 4422,6771 L 4294,6771 Z M 4341,6729 L 4417,6729 C 4440,6729 4458,6727 4471,6723 4484,6718 4495,6712 4503,6704 4514,6693 4523,6678 4529,6659 4535,6641 4538,6618 4538,6591 4538,6554 4532,6526 4520,6506 4508,6486 4493,6473 4476,6466 4463,6461 4443,6459 4415,6459 L 4341,6459 4341,6729 Z M 4766,6664 L 4766,6621 4899,6621 4899,6664 4766,6664 Z M 5175,6616 L 4941,6716 4941,6673 5127,6596 4941,6520 4941,6477 5175,6576 5175,6616 Z M 5378,6771 L 5378,6417 5511,6417 C 5535,6417 5553,6418 5565,6421 5582,6424 5597,6429 5608,6438 5620,6446 5630,6457 5637,6471 5644,6486 5648,6502 5648,6520 5648,6550 5638,6575 5619,6596 5600,6617 5565,6627 5515,6627 L 5424,6627 5424,6771 5378,6771 Z M 5424,6586 L 5516,6586 C 5546,6586 5568,6580 5580,6569 5593,6557 5599,6541 5599,6521 5599,6506 5596,6493 5588,6483 5581,6473 5571,6466 5558,6462 5551,6460 5536,6459 5515,6459 L 5424,6459 5424,6586 Z M 5684,6694 L 5727,6688 C 5729,6705 5736,6718 5747,6727 5758,6736 5773,6741 5793,6741 5813,6741 5828,6737 5838,6729 5847,6721 5852,6711 5852,6700 5852,6690 5848,6683 5839,6677 5833,6673 5819,6668 5795,6662 5763,6654 5741,6647 5728,6641 5716,6636 5707,6628 5701,6617 5694,6607 5691,6595 5691,6583 5691,6571 5694,6561 5699,6551 5704,6541 5711,6533 5721,6527 5727,6522 5736,6518 5748,6514 5760,6511 5772,6509 5785,6509 5806,6509 5823,6512 5838,6518 5854,6523 5865,6531 5872,6541 5879,6551 5884,6564 5887,6581 L 5845,6587 C 5843,6574 5837,6563 5828,6556 5819,6548 5806,6545 5789,6545 5769,6545 5754,6548 5746,6554 5738,6561 5733,6569 5733,6578 5733,6583 5735,6588 5738,6593 5742,6598 5748,6601 5755,6605 5759,6606 5772,6610 5793,6616 5824,6624 5846,6630 5858,6636 5870,6641 5879,6648 5886,6658 5893,6668 5897,6681 5897,6695 5897,6710 5892,6724 5884,6736 5876,6749 5863,6759 5847,6766 5831,6773 5813,6776 5793,6776 5760,6776 5735,6770 5717,6756 5700,6742 5689,6722 5684,6694 Z M 6124,6688 L 6168,6694 C 6161,6720 6148,6740 6129,6755 6110,6769 6086,6776 6056,6776 6018,6776 5989,6765 5967,6742 5945,6719 5934,6687 5934,6645 5934,6602 5945,6568 5967,6545 5989,6521 6018,6509 6053,6509 6088,6509 6115,6521 6137,6544 6159,6567 6170,6600 6170,6642 L 6170,6654 5979,6654 C 5980,6682 5988,6703 6002,6719 6017,6733 6035,6741 6056,6741 6072,6741 6085,6737 6097,6729 6108,6720 6117,6707 6124,6688 Z M 5981,6618 L 6124,6618 C 6122,6597 6117,6581 6108,6570 6094,6553 6076,6545 6054,6545 6034,6545 6017,6551 6003,6565 5990,6578 5982,6596 5981,6618 Z M 6390,6771 L 6390,6733 C 6370,6762 6343,6776 6309,6776 6294,6776 6280,6774 6267,6768 6254,6762 6244,6755 6238,6746 6231,6737 6227,6726 6225,6714 6223,6705 6222,6692 6222,6673 L 6222,6515 6265,6515 6265,6657 C 6265,6679 6266,6694 6268,6702 6271,6714 6276,6723 6285,6729 6294,6736 6305,6739 6318,6739 6331,6739 6343,6736 6354,6729 6366,6722 6374,6713 6379,6702 6383,6691 6386,6674 6386,6652 L 6386,6515 6429,6515 6429,6771 6390,6771 Z M 6663,6771 L 6663,6738 C 6647,6764 6623,6776 6592,6776 6571,6776 6552,6771 6535,6760 6518,6748 6505,6733 6496,6712 6486,6692 6482,6669 6482,6643 6482,6617 6486,6594 6494,6574 6503,6553 6516,6537 6533,6526 6550,6515 6569,6509 6590,6509 6605,6509 6619,6512 6631,6519 6643,6525 6653,6534 6660,6544 L 6660,6417 6704,6417 6704,6771 6663,6771 Z M 6526,6643 C 6526,6676 6533,6700 6547,6717 6561,6733 6577,6741 6596,6741 6615,6741 6631,6733 6644,6718 6657,6702 6664,6678 6664,6647 6664,6612 6657,6586 6644,6570 6630,6553 6614,6545 6594,6545 6575,6545 6559,6553 6546,6569 6533,6584 6526,6609 6526,6643 Z M 6795,6538 C 6817,6519 6844,6509 6876,6509 6911,6509 6940,6521 6962,6544 6984,6567 6996,6598 6996,6639 6996,6672 6991,6698 6981,6717 6971,6736 6956,6750 6937,6761 6919,6771 6898,6776 6876,6776 6840,6776 6811,6765 6789,6742 6767,6719 6756,6686 6756,6643 6756,6595 6769,6560 6795,6538 Z M 6800,6643 C 6800,6675 6807,6700 6821,6717 6836,6733 6854,6741 6876,6741 6897,6741 6915,6733 6929,6717 6944,6700 6951,6675 6951,6641 6951,6610 6944,6586 6929,6569 6915,6553 6897,6545 6876,6545 6854,6545 6836,6553 6821,6569 6807,6585 6800,6610 6800,6643 Z M 7046,6771 L 7046,6515 7085,6515 7085,6551 C 7104,6523 7131,6509 7167,6509 7182,6509 7196,6512 7209,6517 7222,6523 7232,6530 7238,6539 7245,6548 7249,6559 7252,6571 7254,6579 7254,6593 7254,6613 L 7254,6771 7211,6771 7211,6615 C 7211,6597 7209,6584 7206,6576 7202,6567 7196,6560 7188,6554 7179,6549 7169,6547 7158,6547 7139,6547 7123,6553 7110,6564 7096,6576 7090,6598 7090,6631 L 7090,6771 7046,6771 Z M 7319,6869 L 7314,6829 C 7324,6831 7332,6832 7339,6832 7348,6832 7356,6831 7362,6827 7368,6824 7372,6820 7376,6814 7379,6810 7383,6799 7390,6782 7390,6779 7392,6776 7393,6771 L 7296,6515 7343,6515 7396,6663 C 7403,6682 7409,6702 7415,6722 7420,6702 7426,6683 7433,6664 L 7488,6515 7531,6515 7433,6775 C 7423,6803 7415,6823 7409,6833 7401,6847 7392,6858 7383,6865 7373,6871 7361,6874 7347,6874 7338,6874 7329,6873 7319,6869 Z M 7568,6771 L 7568,6515 7607,6515 7607,6551 C 7615,6538 7625,6528 7638,6521 7652,6513 7667,6509 7684,6509 7703,6509 7718,6513 7731,6521 7743,6529 7751,6540 7756,6554 7777,6524 7803,6509 7835,6509 7861,6509 7880,6516 7894,6530 7908,6544 7915,6566 7915,6595 L 7915,6771 7871,6771 7871,6609 C 7871,6592 7870,6580 7867,6572 7864,6565 7859,6558 7852,6554 7844,6549 7836,6547 7826,6547 7808,6547 7793,6553 7781,6565 7769,6577 7763,6596 7763,6622 L 7763,6771 7720,6771 7720,6605 C 7720,6585 7716,6571 7709,6561 7702,6551 7690,6547 7674,6547 7662,6547 7651,6550 7640,6556 7630,6562 7622,6572 7618,6584 7613,6597 7611,6615 7611,6638 L 7611,6771 7568,6771 Z"/>
         <path fill="rgb(0,255,0)" stroke="none" d="M 16958,5559 L 26881,5559 26881,7616 16958,7616 16958,5559 Z"/>
         <path fill="none" stroke="rgb(0,0,0)" stroke-width="26" stroke-linejoin="round" d="M 16958,5559 L 26881,5559 26881,7616 16958,7616 16958,5559 Z"/>
         <path fill="rgb(0,0,0)" stroke="none" d="M 17235,6771 L 17235,6417 17491,6417 17491,6459 17283,6459 17283,6567 17478,6567 17478,6609 17283,6609 17283,6729 17499,6729 17499,6771 17235,6771 17235,6771 Z M 17529,6771 L 17623,6638 17537,6515 17591,6515 17630,6575 C 17637,6586 17643,6596 17648,6603 17655,6593 17661,6583 17667,6575 L 17711,6515 17762,6515 17674,6635 17769,6771 17716,6771 17663,6691 17649,6670 17582,6771 17529,6771 17529,6771 Z M 17805,6869 L 17805,6515 17845,6515 17845,6548 C 17854,6535 17864,6525 17876,6519 17888,6512 17902,6509 17919,6509 17941,6509 17960,6515 17976,6526 17993,6537 18006,6553 18014,6574 18023,6594 18027,6616 18027,6641 18027,6667 18023,6691 18013,6712 18004,6733 17990,6749 17972,6760 17954,6771 17935,6776 17916,6776 17901,6776 17888,6773 17877,6767 17865,6761 17856,6754 17849,6744 L 17849,6869 17805,6869 17805,6869 Z M 17845,6644 C 17845,6677 17851,6701 17864,6717 17878,6733 17894,6741 17913,6741 17932,6741 17949,6733 17962,6717 17976,6700 17983,6675 17983,6640 17983,6608 17976,6584 17963,6567 17950,6551 17934,6543 17915,6543 17896,6543 17880,6552 17866,6569 17852,6586 17845,6611 17845,6644 L 17845,6644 Z M 18064,6643 C 18064,6595 18077,6560 18103,6538 18125,6519 18152,6509 18184,6509 18219,6509 18248,6521 18270,6544 18292,6567 18303,6598 18303,6639 18303,6672 18298,6698 18289,6717 18279,6736 18264,6750 18245,6761 18226,6771 18206,6776 18184,6776 18148,6776 18119,6765 18097,6742 18075,6719 18064,6686 18064,6643 L 18064,6643 Z M 18108,6643 C 18108,6675 18115,6700 18129,6717 18144,6733 18162,6741 18184,6741 18205,6741 18223,6733 18237,6717 18252,6700 18259,6675 18259,6641 18259,6610 18252,6586 18237,6569 18223,6553 18205,6545 18184,6545 18162,6545 18144,6553 18129,6569 18115,6585 18108,6610 18108,6643 L 18108,6643 Z M 18354,6771 L 18354,6515 18393,6515 18393,6554 C 18403,6535 18412,6523 18420,6518 18429,6512 18438,6509 18448,6509 18463,6509 18478,6514 18493,6523 L 18478,6563 C 18467,6557 18457,6554 18446,6554 18436,6554 18428,6557 18420,6562 18413,6568 18408,6576 18404,6586 18399,6601 18397,6618 18397,6637 L 18397,6771 18354,6771 18354,6771 Z M 18613,6732 L 18620,6770 C 18607,6773 18596,6774 18587,6774 18571,6774 18559,6772 18550,6767 18542,6762 18535,6755 18532,6747 18528,6739 18526,6722 18526,6696 L 18526,6548 18495,6548 18495,6515 18526,6515 18526,6452 18569,6426 18569,6515 18613,6515 18613,6548 18569,6548 18569,6698 C 18569,6710 18570,6718 18572,6722 18573,6726 18576,6728 18579,6731 18583,6733 18588,6733 18594,6733 18599,6733 18605,6733 18613,6732 L 18613,6732 Z M 18831,6688 L 18876,6694 C 18869,6720 18855,6740 18836,6755 18817,6769 18793,6776 18763,6776 18726,6776 18696,6765 18674,6742 18652,6719 18641,6687 18641,6645 18641,6602 18652,6568 18674,6545 18697,6521 18725,6509 18761,6509 18795,6509 18823,6521 18844,6544 18866,6567 18877,6600 18877,6642 18877,6645 18877,6649 18877,6654 L 18686,6654 C 18688,6682 18696,6703 18710,6719 18724,6733 18742,6741 18763,6741 18779,6741 18793,6737 18804,6729 18815,6720 18824,6707 18831,6688 L 18831,6688 Z M 18688,6618 L 18831,6618 C 18830,6597 18824,6581 18815,6570 18801,6553 18783,6545 18761,6545 18741,6545 18725,6551 18711,6565 18697,6578 18690,6596 18688,6618 L 18688,6618 Z M 19096,6771 L 19096,6738 C 19080,6764 19056,6776 19025,6776 19004,6776 18985,6771 18968,6760 18951,6748 18938,6733 18929,6712 18919,6692 18915,6669 18915,6643 18915,6617 18919,6594 18927,6574 18936,6553 18949,6537 18965,6526 18983,6515 19002,6509 19023,6509 19038,6509 19052,6512 19064,6519 19076,6525 19086,6534 19093,6544 L 19093,6417 19137,6417 19137,6771 19096,6771 19096,6771 Z M 18959,6643 C 18959,6676 18966,6700 18980,6717 18994,6733 19010,6741 19029,6741 19048,6741 19064,6733 19077,6718 19090,6702 19097,6678 19097,6647 19097,6612 19090,6586 19077,6570 19063,6553 19046,6545 19027,6545 19008,6545 18992,6553 18979,6569 18966,6584 18959,6609 18959,6643 L 18959,6643 Z M 19348,6771 L 19348,6417 19505,6417 C 19536,6417 19560,6420 19576,6427 19593,6433 19606,6444 19616,6461 19626,6477 19630,6494 19630,6514 19630,6539 19622,6560 19606,6577 19590,6594 19565,6605 19531,6610 19543,6616 19553,6622 19559,6628 19573,6640 19586,6656 19598,6674 L 19659,6771 19601,6771 19554,6697 C 19540,6676 19529,6660 19520,6649 19511,6637 19503,6630 19496,6625 19489,6621 19482,6617 19475,6616 19470,6614 19461,6614 19449,6614 L 19395,6614 19395,6771 19348,6771 19348,6771 Z M 19395,6574 L 19495,6574 C 19517,6574 19533,6571 19545,6567 19557,6562 19567,6555 19573,6545 19579,6536 19583,6525 19583,6514 19583,6497 19576,6483 19564,6473 19552,6462 19533,6457 19506,6457 L 19395,6457 19395,6574 19395,6574 Z M 19874,6688 L 19918,6694 C 19911,6720 19898,6740 19879,6755 19860,6769 19836,6776 19806,6776 19768,6776 19739,6765 19717,6742 19695,6719 19684,6687 19684,6645 19684,6602 19695,6568 19717,6545 19739,6521 19768,6509 19803,6509 19838,6509 19865,6521 19887,6544 19909,6567 19920,6600 19920,6642 19920,6645 19920,6649 19920,6654 L 19729,6654 C 19730,6682 19738,6703 19753,6719 19767,6733 19785,6741 19806,6741 19822,6741 19836,6737 19847,6729 19858,6720 19867,6707 19874,6688 L 19874,6688 Z M 19731,6618 L 19874,6618 C 19872,6597 19867,6581 19858,6570 19844,6553 19826,6545 19804,6545 19784,6545 19767,6551 19753,6565 19740,6578 19732,6596 19731,6618 L 19731,6618 Z M 20140,6677 L 20183,6683 C 20178,6712 20166,6735 20147,6752 20128,6768 20104,6776 20076,6776 20041,6776 20013,6765 19992,6742 19970,6719 19960,6687 19960,6644 19960,6616 19964,6592 19973,6571 19982,6550 19996,6535 20015,6525 20034,6514 20054,6509 20076,6509 20104,6509 20127,6516 20144,6530 20162,6544 20173,6564 20178,6590 L 20136,6596 C 20132,6579 20125,6566 20115,6558 20105,6549 20092,6545 20078,6545 20056,6545 20038,6552 20025,6568 20011,6584 20004,6609 20004,6643 20004,6677 20011,6702 20024,6718 20037,6733 20054,6741 20075,6741 20093,6741 20107,6736 20118,6725 20130,6715 20137,6699 20140,6677 L 20140,6677 Z M 20204,6643 C 20204,6595 20217,6560 20243,6538 20265,6519 20292,6509 20323,6509 20359,6509 20388,6521 20410,6544 20432,6567 20443,6598 20443,6639 20443,6672 20438,6698 20428,6717 20419,6736 20404,6750 20385,6761 20366,6771 20346,6776 20323,6776 20288,6776 20259,6765 20237,6742 20215,6719 20204,6686 20204,6643 L 20204,6643 Z M 20248,6643 C 20248,6675 20255,6700 20269,6717 20284,6733 20302,6741 20323,6741 20345,6741 20363,6733 20377,6717 20392,6700 20399,6675 20399,6641 20399,6610 20392,6586 20377,6569 20363,6553 20345,6545 20323,6545 20302,6545 20284,6553 20269,6569 20255,6585 20248,6610 20248,6643 L 20248,6643 Z M 20494,6771 L 20494,6515 20533,6515 20533,6554 C 20543,6535 20552,6523 20560,6518 20569,6512 20578,6509 20588,6509 20603,6509 20618,6514 20633,6523 L 20618,6563 C 20607,6557 20596,6554 20586,6554 20576,6554 20568,6557 20560,6562 20553,6568 20548,6576 20544,6586 20539,6601 20537,6618 20537,6637 L 20537,6771 20494,6771 20494,6771 Z M 20824,6771 L 20824,6738 C 20808,6764 20785,6776 20753,6776 20732,6776 20714,6771 20697,6760 20680,6748 20666,6733 20657,6712 20648,6692 20643,6669 20643,6643 20643,6617 20647,6594 20656,6574 20664,6553 20677,6537 20694,6526 20711,6515 20730,6509 20751,6509 20767,6509 20780,6512 20792,6519 20804,6525 20814,6534 20821,6544 L 20821,6417 20865,6417 20865,6771 20824,6771 20824,6771 Z M 20688,6643 C 20688,6676 20694,6700 20708,6717 20722,6733 20738,6741 20757,6741 20776,6741 20792,6733 20805,6718 20819,6702 20825,6678 20825,6647 20825,6612 20818,6586 20805,6570 20791,6553 20775,6545 20755,6545 20736,6545 20720,6553 20707,6569 20694,6584 20688,6609 20688,6643 L 20688,6643 Z M 21053,6664 L 21053,6621 21186,6621 21186,6664 21053,6664 21053,6664 Z M 21378,6771 L 21378,6417 21633,6417 21633,6459 21425,6459 21425,6567 21620,6567 21620,6609 21425,6609 21425,6729 21642,6729 21642,6771 21378,6771 21378,6771 Z M 21701,6771 L 21701,6515 21740,6515 21740,6551 C 21759,6523 21786,6509 21821,6509 21837,6509 21851,6512 21864,6517 21877,6523 21886,6530 21893,6539 21899,6548 21904,6559 21906,6571 21908,6579 21909,6593 21909,6613 L 21909,6771 21866,6771 21866,6615 C 21866,6597 21864,6584 21860,6576 21857,6567 21851,6560 21842,6554 21834,6549 21824,6547 21812,6547 21794,6547 21778,6553 21764,6564 21751,6576 21744,6598 21744,6631 L 21744,6771 21701,6771 21701,6771 Z M 22143,6677 L 22185,6683 C 22180,6712 22168,6735 22149,6752 22130,6768 22107,6776 22078,6776 22043,6776 22015,6765 21994,6742 21973,6719 21962,6687 21962,6644 21962,6616 21967,6592 21976,6571 21985,6550 21999,6535 22018,6525 22036,6514 22057,6509 22079,6509 22107,6509 22129,6516 22147,6530 22165,6544 22176,6564 22181,6590 L 22139,6596 C 22135,6579 22128,6566 22117,6558 22107,6549 22095,6545 22081,6545 22059,6545 22041,6552 22027,6568 22013,6584 22007,6609 22007,6643 22007,6677 22013,6702 22026,6718 22040,6733 22057,6741 22078,6741 22095,6741 22109,6736 22121,6725 22132,6715 22139,6699 22143,6677 L 22143,6677 Z M 22222,6771 L 22222,6515 22261,6515 22261,6554 C 22271,6535 22280,6523 22288,6518 22297,6512 22306,6509 22316,6509 22331,6509 22346,6514 22361,6523 L 22346,6563 C 22335,6557 22325,6554 22314,6554 22304,6554 22296,6557 22288,6562 22281,6568 22276,6576 22272,6586 22267,6601 22265,6618 22265,6637 L 22265,6771 22222,6771 22222,6771 Z M 22385,6869 L 22380,6829 C 22389,6831 22398,6832 22404,6832 22414,6832 22422,6831 22428,6827 22433,6824 22438,6820 22442,6814 22445,6810 22449,6799 22455,6782 22456,6779 22457,6776 22459,6771 L 22362,6515 22409,6515 22462,6663 C 22469,6682 22475,6702 22481,6722 22485,6702 22491,6683 22498,6664 L 22553,6515 22597,6515 22499,6775 C 22489,6803 22481,6823 22475,6833 22467,6847 22458,6858 22448,6865 22438,6871 22427,6874 22413,6874 22404,6874 22395,6873 22385,6869 L 22385,6869 Z M 22633,6869 L 22633,6515 22673,6515 22673,6548 C 22682,6535 22693,6525 22704,6519 22716,6512 22730,6509 22747,6509 22769,6509 22788,6515 22805,6526 22821,6537 22834,6553 22843,6574 22851,6594 22855,6616 22855,6641 22855,6667 22851,6691 22841,6712 22832,6733 22818,6749 22800,6760 22783,6771 22764,6776 22744,6776 22730,6776 22717,6773 22705,6767 22693,6761 22684,6754 22677,6744 L 22677,6869 22633,6869 22633,6869 Z M 22673,6644 C 22673,6677 22679,6701 22693,6717 22706,6733 22722,6741 22741,6741 22760,6741 22777,6733 22791,6717 22804,6700 22811,6675 22811,6640 22811,6608 22804,6584 22791,6567 22778,6551 22762,6543 22743,6543 22725,6543 22708,6552 22694,6569 22680,6586 22673,6611 22673,6644 L 22673,6644 Z M 23003,6732 L 23009,6770 C 22997,6773 22986,6774 22976,6774 22961,6774 22948,6772 22939,6767 22931,6762 22925,6755 22921,6747 22918,6739 22916,6722 22916,6696 L 22916,6548 22884,6548 22884,6515 22916,6515 22916,6452 22959,6426 22959,6515 23003,6515 23003,6548 22959,6548 22959,6698 C 22959,6710 22960,6718 22961,6722 22963,6726 22965,6728 22968,6731 22972,6733 22977,6733 22984,6733 22988,6733 22995,6733 23003,6732 L 23003,6732 Z M 23220,6688 L 23265,6694 C 23258,6720 23245,6740 23226,6755 23207,6769 23182,6776 23153,6776 23115,6776 23085,6765 23063,6742 23042,6719 23031,6687 23031,6645 23031,6602 23042,6568 23064,6545 23086,6521 23115,6509 23150,6509 23184,6509 23212,6521 23234,6544 23255,6567 23266,6600 23266,6642 23266,6645 23266,6649 23266,6654 L 23075,6654 C 23077,6682 23085,6703 23099,6719 23114,6733 23131,6741 23153,6741 23169,6741 23182,6737 23194,6729 23205,6720 23214,6707 23220,6688 L 23220,6688 Z M 23078,6618 L 23221,6618 C 23219,6597 23213,6581 23204,6570 23191,6553 23173,6545 23151,6545 23131,6545 23114,6551 23100,6565 23087,6578 23079,6596 23078,6618 L 23078,6618 Z M 23485,6771 L 23485,6738 C 23469,6764 23446,6776 23414,6776 23394,6776 23375,6771 23358,6760 23341,6748 23327,6733 23318,6712 23309,6692 23304,6669 23304,6643 23304,6617 23308,6594 23317,6574 23325,6553 23338,6537 23355,6526 23372,6515 23391,6509 23412,6509 23428,6509 23441,6512 23453,6519 23465,6525 23475,6534 23483,6544 L 23483,6417 23526,6417 23526,6771 23485,6771 23485,6771 Z M 23349,6643 C 23349,6676 23355,6700 23369,6717 23383,6733 23399,6741 23418,6741 23437,6741 23453,6733 23466,6718 23480,6702 23486,6678 23486,6647 23486,6612 23480,6586 23466,6570 23452,6553 23436,6545 23416,6545 23397,6545 23381,6553 23368,6569 23355,6584 23349,6609 23349,6643 L 23349,6643 Z M 23737,6771 L 23737,6417 23870,6417 C 23894,6417 23912,6418 23924,6421 23941,6424 23956,6429 23967,6438 23979,6446 23989,6457 23996,6471 24003,6486 24007,6502 24007,6520 24007,6550 23997,6575 23978,6596 23959,6617 23924,6627 23874,6627 L 23783,6627 23783,6771 23737,6771 23737,6771 Z M 23783,6586 L 23875,6586 C 23905,6586 23927,6580 23939,6569 23952,6557 23958,6541 23958,6521 23958,6506 23955,6493 23947,6483 23940,6473 23930,6466 23917,6462 23910,6460 23895,6459 23874,6459 L 23783,6459 23783,6586 23783,6586 Z M 24043,6694 L 24086,6688 C 24088,6705 24095,6718 24106,6727 24117,6736 24132,6741 24152,6741 24172,6741 24187,6737 24197,6729 24206,6721 24211,6711 24211,6700 24211,6690 24207,6683 24198,6677 24192,6673 24178,6668 24154,6662 24122,6654 24100,6647 24087,6641 24075,6636 24066,6628 24060,6617 24053,6607 24050,6595 24050,6583 24050,6571 24053,6561 24058,6551 24063,6541 24070,6533 24080,6527 24086,6522 24095,6518 24107,6514 24119,6511 24131,6509 24144,6509 24165,6509 24182,6512 24197,6518 24213,6523 24224,6531 24231,6541 24238,6551 24243,6564 24246,6581 L 24204,6587 C 24202,6574 24196,6563 24187,6556 24178,6548 24165,6545 24148,6545 24128,6545 24113,6548 24105,6554 24097,6561 24092,6569 24092,6578 24092,6583 24094,6588 24097,6593 24101,6598 24107,6601 24114,6605 24118,6606 24131,6610 24152,6616 24183,6624 24205,6630 24217,6636 24229,6641 24238,6648 24245,6658 24252,6668 24256,6681 24256,6695 24256,6710 24251,6724 24243,6736 24235,6749 24222,6759 24206,6766 24190,6773 24172,6776 24152,6776 24119,6776 24094,6770 24076,6756 24059,6742 24048,6722 24043,6694 L 24043,6694 Z M 24483,6688 L 24527,6694 C 24520,6720 24507,6740 24488,6755 24469,6769 24445,6776 24415,6776 24377,6776 24348,6765 24326,6742 24304,6719 24293,6687 24293,6645 24293,6602 24304,6568 24326,6545 24348,6521 24377,6509 24412,6509 24447,6509 24474,6521 24496,6544 24518,6567 24529,6600 24529,6642 24529,6645 24529,6649 24529,6654 L 24338,6654 C 24339,6682 24347,6703 24361,6719 24376,6733 24394,6741 24415,6741 24431,6741 24444,6737 24456,6729 24467,6720 24476,6707 24483,6688 L 24483,6688 Z M 24340,6618 L 24483,6618 C 24481,6597 24476,6581 24466,6570 24453,6553 24435,6545 24413,6545 24393,6545 24376,6551 24362,6565 24349,6578 24341,6596 24340,6618 L 24340,6618 Z M 24749,6771 L 24749,6733 C 24729,6762 24702,6776 24668,6776 24653,6776 24639,6774 24626,6768 24613,6762 24603,6755 24597,6746 24590,6737 24586,6726 24584,6714 24582,6705 24581,6692 24581,6673 L 24581,6515 24624,6515 24624,6657 C 24624,6679 24625,6694 24627,6702 24630,6714 24635,6723 24644,6729 24653,6736 24664,6739 24677,6739 24690,6739 24702,6736 24713,6729 24725,6722 24733,6713 24738,6702 24742,6691 24745,6674 24745,6652 L 24745,6515 24788,6515 24788,6771 24749,6771 24749,6771 Z M 25022,6771 L 25022,6738 C 25006,6764 24982,6776 24951,6776 24930,6776 24911,6771 24894,6760 24877,6748 24864,6733 24855,6712 24845,6692 24841,6669 24841,6643 24841,6617 24845,6594 24853,6574 24862,6553 24875,6537 24892,6526 24909,6515 24928,6509 24949,6509 24964,6509 24978,6512 24990,6519 25002,6525 25012,6534 25019,6544 L 25019,6417 25063,6417 25063,6771 25022,6771 25022,6771 Z M 24885,6643 C 24885,6676 24892,6700 24906,6717 24920,6733 24936,6741 24955,6741 24974,6741 24990,6733 25003,6718 25016,6702 25023,6678 25023,6647 25023,6612 25016,6586 25003,6570 24989,6553 24973,6545 24953,6545 24934,6545 24918,6553 24905,6569 24892,6584 24885,6609 24885,6643 L 24885,6643 Z M 25115,6643 C 25115,6595 25128,6560 25154,6538 25176,6519 25203,6509 25235,6509 25270,6509 25299,6521 25321,6544 25343,6567 25355,6598 25355,6639 25355,6672 25350,6698 25340,6717 25330,6736 25315,6750 25296,6761 25278,6771 25257,6776 25235,6776 25199,6776 25170,6765 25148,6742 25126,6719 25115,6686 25115,6643 L 25115,6643 Z M 25159,6643 C 25159,6675 25166,6700 25180,6717 25195,6733 25213,6741 25235,6741 25256,6741 25274,6733 25288,6717 25303,6700 25310,6675 25310,6641 25310,6610 25303,6586 25288,6569 25274,6553 25256,6545 25235,6545 25213,6545 25195,6553 25180,6569 25166,6585 25159,6610 25159,6643 L 25159,6643 Z M 25405,6771 L 25405,6515 25444,6515 25444,6551 C 25463,6523 25490,6509 25526,6509 25541,6509 25555,6512 25568,6517 25581,6523 25591,6530 25597,6539 25604,6548 25608,6559 25611,6571 25613,6579 25613,6593 25613,6613 L 25613,6771 25570,6771 25570,6615 C 25570,6597 25568,6584 25565,6576 25561,6567 25555,6560 25547,6554 25538,6549 25528,6547 25517,6547 25498,6547 25482,6553 25469,6564 25455,6576 25449,6598 25449,6631 L 25449,6771 25405,6771 25405,6771 Z M 25678,6869 L 25673,6829 C 25683,6831 25691,6832 25698,6832 25707,6832 25715,6831 25721,6827 25727,6824 25731,6820 25735,6814 25738,6810 25742,6799 25749,6782 25749,6779 25751,6776 25752,6771 L 25655,6515 25702,6515 25755,6663 C 25762,6682 25768,6702 25774,6722 25779,6702 25785,6683 25792,6664 L 25847,6515 25890,6515 25792,6775 C 25782,6803 25774,6823 25768,6833 25760,6847 25751,6858 25742,6865 25732,6871 25720,6874 25706,6874 25697,6874 25688,6873 25678,6869 L 25678,6869 Z M 25927,6771 L 25927,6515 25966,6515 25966,6551 C 25974,6538 25984,6528 25997,6521 26011,6513 26026,6509 26043,6509 26062,6509 26077,6513 26090,6521 26102,6529 26110,6540 26115,6554 26136,6524 26162,6509 26194,6509 26220,6509 26239,6516 26253,6530 26267,6544 26274,6566 26274,6595 L 26274,6771 26230,6771 26230,6609 C 26230,6592 26229,6580 26226,6572 26223,6565 26218,6558 26211,6554 26203,6549 26195,6547 26185,6547 26167,6547 26152,6553 26140,6565 26128,6577 26122,6596 26122,6622 L 26122,6771 26079,6771 26079,6605 C 26079,6585 26075,6571 26068,6561 26061,6551 26049,6547 26033,6547 26021,6547 26010,6550 25999,6556 25989,6562 25981,6572 25977,6584 25972,6597 25970,6615 25970,6638 L 25970,6771 25927,6771 25927,6771 Z"/>
         <path fill="none" stroke="rgb(0,0,0)" stroke-width="26" stroke-linejoin="round" d="M 8346,6588 L 16800,6588"/>
         <path fill="rgb(0,0,0)" stroke="none" d="M 16800,6631 L 16920,6588 16800,6544 16800,6631 Z"/>
         <path fill="none" stroke="rgb(0,0,0)" stroke-width="26" stroke-linejoin="miter" d="M 16800,6631 L 16920,6588 16800,6544 16800,6631 Z"/>
         <path fill="rgb(255,0,0)" stroke="none" d="M 11151,6073 L 11665,6073 11665,5559 13045,5559 13045,6073 13559,6073 13559,7102 13045,7102 13045,7616 11665,7616 11665,7102 11151,7102 11151,6073 Z"/>
         <path fill="none" stroke="rgb(0,0,0)" stroke-width="26" stroke-linejoin="round" d="M 11151,6073 L 11665,6073 11665,5559 13045,5559 13045,6073 13559,6073 13559,7102 13045,7102 13045,7616 11665,7616 11665,7102 11151,7102 11151,6073 Z"/>
         <path fill="rgb(0,0,0)" stroke="none" d="M 11966,6771 L 11966,6417 12013,6417 12013,6593 12188,6417 12252,6417 12104,6561 12258,6771 12197,6771 12071,6592 12013,6648 12013,6771 11966,6771 11966,6771 Z M 12467,6688 L 12512,6694 C 12505,6720 12492,6740 12473,6755 12454,6769 12429,6776 12399,6776 12362,6776 12332,6765 12310,6742 12288,6719 12278,6687 12278,6645 12278,6602 12289,6568 12311,6545 12333,6521 12362,6509 12397,6509 12431,6509 12459,6521 12480,6544 12502,6567 12513,6600 12513,6642 12513,6645 12513,6649 12513,6654 L 12322,6654 C 12324,6682 12332,6703 12346,6719 12360,6733 12378,6741 12399,6741 12415,6741 12429,6737 12440,6729 12452,6720 12461,6707 12467,6688 L 12467,6688 Z M 12325,6618 L 12468,6618 C 12466,6597 12460,6581 12451,6570 12437,6553 12419,6545 12397,6545 12378,6545 12361,6551 12347,6565 12333,6578 12326,6596 12325,6618 L 12325,6618 Z M 12564,6869 L 12559,6829 C 12569,6831 12577,6832 12584,6832 12594,6832 12602,6831 12607,6827 12613,6824 12618,6820 12622,6814 12625,6810 12629,6799 12635,6782 12636,6779 12637,6776 12639,6771 L 12542,6515 12588,6515 12642,6663 C 12649,6682 12655,6702 12660,6722 12665,6702 12671,6683 12678,6664 L 12733,6515 12777,6515 12679,6775 C 12668,6803 12660,6823 12655,6833 12647,6847 12638,6858 12628,6865 12618,6871 12606,6874 12593,6874 12584,6874 12575,6873 12564,6869 L 12564,6869 Z"/>
        </g>
       </g>
      </g>
     </g>
    </g>
   </g>
  </g>
 </g>
</svg>